<?xml version="1.0" encoding="UTF-8"?>
<svg width="97px" height="31px" viewBox="0 0 97 31" version="1.1" xmlns="http://www.w3.org/2000/svg" xmlns:xlink="http://www.w3.org/1999/xlink">
    <title>Shape</title>
    <g id="Symbols" stroke="none" stroke-width="1" fill="none" fill-rule="evenodd">
        <g id="cadena-ser" fill="#22273D" fill-rule="nonzero">
            <path d="M34.759,30.995 L61.644,30.994 C62.619,30.994 63.41,30.215 63.41,29.254 L63.41,27.092 C63.41,26.131 62.619,25.352 61.644,25.352 L38.717,25.352 L38.717,18.818 L58.533,18.818 C59.508,18.818 60.299,18.04 60.299,17.079 L60.299,14.916 C60.299,13.955 59.508,13.177 58.533,13.177 L38.717,13.177 L38.717,6.642 L61.645,6.642 C62.62,6.642 63.411,5.863 63.411,4.902 L63.411,2.739 C63.411,1.779 62.62,0.999 61.645,0.999 L34.759,0.999 C33.785,0.999 32.995,1.969 32.995,3.164 L32.995,28.83 C32.996,30.025 33.786,30.995 34.759,30.995 Z M67.729,30.995 L69.92,30.995 C70.895,30.995 71.686,30.217 71.686,29.256 L71.686,6.643 L87.36,6.643 C89.182,6.65 90.657,8.11 90.657,9.911 C90.657,10.842 90.261,11.683 89.628,12.278 L74.74,25.176 C73.9541623,25.7905469 73.4946684,26.7323987 73.494,27.73 C73.494,29.534 74.976,30.996 76.805,30.996 L95.239,30.995 C96.212,30.995 97.001,30.216 97.001,29.255 L97.001,27.093 C96.9980924,26.6286939 96.8107855,26.1845757 96.4803152,25.8584192 C96.149845,25.5322627 95.7033043,25.350807 95.239,25.354 L82.688,25.55 L92.938,16.904 L93.094,16.78 C95.102,15.145 96.379,12.675 96.379,9.911 C96.379,5.018 92.377,1.047 87.428,1.00294365 L67.729,1.00294365 C67.2643506,0.999273599 66.8172953,1.18049322 66.4863915,1.50670733 C66.1554877,1.83292144 65.9679058,2.27734473 65.965,2.742 L65.965,29.257 C65.965,30.217 66.754,30.995 67.729,30.995 Z M1.763,30.986 L21.462,30.985 C26.412,30.941 30.414,26.97 30.414,22.077 C30.414,17.184 26.414,13.21 21.435,13.168 L9.02,13.171 C7.199,13.163 5.722,11.702 5.722,9.904 C5.722,8.104 7.197,6.643 9.02,6.637 L28.649,6.637 C29.623,6.637 30.414,5.858 30.414,4.897 L30.414,2.735 C30.414,1.774 29.623,0.995 28.649,0.995 L8.95,0.996 C4,1.039 0,5.011 0,9.904 C0,14.798 4,18.77 8.978,18.812 L21.393,18.809 C23.215,18.818 24.691,20.279 24.691,22.077 C24.691,23.877 23.215,25.338 21.393,25.344 L1.763,25.344 C0.789,25.344 0,26.123 0,27.084 L0,29.246 C0,30.207 0.789,30.986 1.763,30.986 L1.763,30.986 Z" id="Shape"></path>
        </g>
    </g>
</svg>